<svg width="57" height="66" viewBox="0 0 57 66" fill="none" xmlns="http://www.w3.org/2000/svg">
<path d="M7.43475 7.47168H48.3261V48.566H7.43475V7.47168Z" fill="white"/>
<path fill-rule="evenodd" clip-rule="evenodd" d="M32.3921 30.426H19.5262V36.5105H32.0836C32.8258 36.5105 33.5061 36.2066 34.0625 35.7197C34.5581 35.2328 34.8679 34.5031 34.8679 33.5903C34.8851 32.8045 34.6457 32.0347 34.1864 31.3986C33.6907 30.7909 33.1344 30.426 32.3921 30.426V30.426ZM32.8258 23.0627C33.3834 22.6978 33.63 21.9058 33.63 20.871C33.63 19.9594 33.3822 19.2894 32.9485 18.8636C32.5008 18.4769 31.9316 18.2616 31.3414 18.2559H19.5262V23.7314H31.0935C31.7131 23.7314 32.3302 23.4275 32.8258 23.0627Z" fill="#00B3B0"/>
<path fill-rule="evenodd" clip-rule="evenodd" d="M53.2851 0H2.88965C1.2825 0 0 1.28638 0 2.83053V53.3915C0 54.9357 1.28374 55.9008 2.82522 55.9008H10.2724V66L19.5163 55.9655H53.2851C54.8253 55.9655 55.7881 55.0004 55.7881 53.3915V2.89528C55.7881 1.35113 54.8253 0.0647547 53.2207 0.0647547L53.2851 0ZM44.8107 40.976C44.1688 42.1341 43.206 43.0992 42.0499 43.8066C40.8306 44.5786 39.4824 45.286 37.9409 45.6085C36.4007 45.9945 34.7316 46.3158 32.998 46.3158H10.2724V10.2923H36.0798C37.3635 10.2923 38.4552 10.55 39.4824 11.1291C40.4586 11.6481 41.3295 12.3463 42.0499 13.1875C43.4876 14.943 44.261 17.153 44.2332 19.4264C44.2332 21.0988 43.7834 22.7077 42.9495 24.2519C42.0829 25.8062 40.7281 27.028 39.097 27.7262C41.1515 28.304 42.7562 29.3326 43.9755 30.8133C45.1316 32.3574 45.7103 34.3499 45.7103 36.8591C45.7103 38.468 45.3881 39.8192 44.7462 40.976H44.8107V40.976Z" fill="#00B3B0"/>
</svg>
